<?xml version="1.0" encoding="UTF-8" standalone="no"?>
<svg
   viewBox="0,0,256,256"
   width="128px"
   height="128px"
   fill-rule="nonzero"
   version="1.1"
   id="svg3"
   sodipodi:docname="icons8-crunchyroll.svg"
   xml:space="preserve"
   inkscape:version="1.4.2 (ebf0e940d0, 2025-05-08)"
   xmlns:inkscape="http://www.inkscape.org/namespaces/inkscape"
   xmlns:sodipodi="http://sodipodi.sourceforge.net/DTD/sodipodi-0.dtd"
   xmlns="http://www.w3.org/2000/svg"
   xmlns:svg="http://www.w3.org/2000/svg"><defs
     id="defs3" /><sodipodi:namedview
     id="namedview3"
     pagecolor="#ffffff"
     bordercolor="#000000"
     borderopacity="0.25"
     inkscape:showpageshadow="2"
     inkscape:pageopacity="0.0"
     inkscape:pagecheckerboard="0"
     inkscape:deskcolor="#d1d1d1"
     inkscape:zoom="6.59375"
     inkscape:cx="64"
     inkscape:cy="64"
     inkscape:window-width="2560"
     inkscape:window-height="1008"
     inkscape:window-x="0"
     inkscape:window-y="0"
     inkscape:window-maximized="1"
     inkscape:current-layer="svg3" /><path
     d="m 47.99997,141.33324 c 0,-51.546629 41.786641,-93.33327 93.33327,-93.33327 49.29597,0 89.56262,38.245309 92.99728,86.66661 0.13867,-2.21866 0.336,-4.41599 0.336,-6.66666 0,-58.911963 -47.75464,-106.6666 -106.6666,-106.6666 -58.911963,0 -106.6666,47.754637 -106.6666,106.6666 0,58.91196 47.754637,106.6666 106.6666,106.6666 2.25067,0 4.448,-0.19733 6.66666,-0.336 -48.421301,-3.43466 -86.66661,-43.70131 -86.66661,-92.99728 z"
     id="path1"
     style="font-family:none;mix-blend-mode:normal;fill:#c000ff;fill-rule:nonzero;stroke:none;stroke-width:5.33333;stroke-linecap:butt;stroke-linejoin:miter;stroke-miterlimit:10;stroke-dasharray:none;stroke-dashoffset:0"
     inkscape:export-filename="icons-48.png"
     inkscape:export-xdpi="43.200027"
     inkscape:export-ydpi="43.200027" /><path
     d="m 146.80569,75.039492 c 40.00231,0 72.4297,32.427378 72.4297,72.429698 0,40.00232 -32.42739,72.42971 -72.4297,72.42971 -40.00232,0 -72.429705,-32.42739 -72.429705,-72.42971 0,-40.00232 32.427385,-72.429698 72.429705,-72.429698 z m 24.14322,81.483408 c 5.00067,0 9.05372,-4.05303 9.05372,-9.05371 0,-5.00066 -4.05305,-9.0537 -9.05372,-9.0537 -0.99288,0 -7.32143,0 -15.08952,0 0,-7.76809 0,-14.09965 0,-15.08952 0,-5.00066 -4.05303,-9.05373 -9.0537,-9.05373 -5.00067,0 -9.05371,4.05307 -9.05371,9.05373 0,0.98987 0,7.32143 0,15.08952 -7.76809,0 -14.09663,0 -15.08953,0 -5.00066,0 -9.05372,4.05304 -9.05372,9.0537 0,5.00068 4.05306,9.05371 9.05372,9.05371 0.9929,0 7.32144,0 15.08953,0 0,7.76809 0,14.09966 0,15.08953 0,5.00067 4.05304,9.05372 9.05371,9.05372 5.00067,0 9.0537,-4.05305 9.0537,-9.05372 0,-0.98987 0,-7.32144 0,-15.08953 7.76809,0 14.09664,0 15.08952,0 z"
     id="path1-3"
     style="stroke-width:3.01791;fill:#c000ff;fill-opacity:1" /></svg>
